# xmcd
#
# Track frame offsets:
#	150
#	10167
#	29147
#	41692
#	58130
#	73072
#	90117
#	103890
#	119037
#	133875
#	144137
#	156450
#	166145
#	176972
#	191272
#	204225
#	218912
#	233350
#	249055
#
# Disc length: 3491 seconds
#
# Revision: 1
# Processed by: cddbd v1.5.1PL2 Copyright (c) Steve Scherf et al.
# Submitted via: audiograbber 1.83.01
#
DISCID=0a0da113
DTITLE=Mandy - Santa Fe
DYEAR=1900
DGENRE=Country
TTITLE0=Heartland
TTITLE1=Some Gave All
TTITLE2=Streets Of Bakersfield
TTITLE3=Too Cold At Home
TTITLE4=Turn It On, Turn It Up, Turn Me Loose
TTITLE5=It's Just A Matter Of Time
TTITLE6=Brother Jukebox
TTITLE7=Why Me Lord
TTITLE8=Seminole Wind
TTITLE9=She's Got The Rhythm
TTITLE10=Amarillo By Morning
TTITLE11=He'll Have To Go
TTITLE12=A White Sport Coat
TTITLE13=Whiskey Bend And Hell Bound
TTITLE14=Mammas, Don't Let Your Babies Grow Up To Be Cowboys
TTITLE15=Good Hearted Woman
TTITLE16=All My Ex's Live In Texas
TTITLE17=Nobody's Home
TTITLE18=Walkin' Away
EXTD=
EXTT0=
EXTT1=
EXTT2=
EXTT3=
EXTT4=
EXTT5=
EXTT6=
EXTT7=
EXTT8=
EXTT9=
EXTT10=
EXTT11=
EXTT12=
EXTT13=
EXTT14=
EXTT15=
EXTT16=
EXTT17=
EXTT18=
PLAYORDER=
